# xmcd CD database file
#
# Track frame offsets:
#	150
#	15702
#	33150
#	69505
#	89100
#	125867
#	153062
#	181735
#	206347
#	240187
#
# Disc length: 3676 seconds
#
# Revision: 0
# Processed by: cddbd v1.4PL0 Copyright (c) Steve Scherf et al.
# Submitted via: CDex 1.50
#
DISCID=770e5a0a
DTITLE=Mulgrew Miller - Landmarks
DYEAR=1991
DGENRE=Jazz
TTITLE0=Promethean
TTITLE1=Inner Urge
TTITLE2=Portrait of a Mountain
TTITLE3=Milestones
TTITLE4=Sublimity
TTITLE5=My Man's Gone Now
TTITLE6=Blues Again
TTITLE7=I Remember You
TTITLE8=You're That Dream
TTITLE9=Soul-Leo
EXTD=YEAR: 1991
EXTT0=
EXTT1=
EXTT2=
EXTT3=
EXTT4=
EXTT5=
EXTT6=
EXTT7=
EXTT8=
EXTT9=
PLAYORDER=
